<svg xmlns="http://www.w3.org/2000/svg" width="1632.72" height="380" viewBox="0 0 1632.72 380">
  <defs>
    <style>
      .cls-1, .cls-3 {
        fill: none;
      }

      .cls-1, .cls-4 {
        stroke: #707070;
      }

      .cls-1 {
        stroke-width: 5px;
      }

      .cls-2, .cls-4 {
        fill: #fff;
      }

      .cls-5 {
        fill: #707070;
        font-size: 20px;
        font-family: Montserrat-Regular, Montserrat;
      }

      .cls-6 {
        stroke: none;
      }
    </style>
  </defs>
  <g id="Group_30" data-name="Group 30" transform="translate(-154.39 -1225)">
    <path id="Path_1" data-name="Path 1" class="cls-1" d="M156.759,1099.175S260,1406.181,460,1406.181s300-306.076,500-307.006,300,307.936,500,307.006S1784.822,1121.5,1784.822,1121.5" transform="translate(0 162)"/>
    <g id="Group_4" data-name="Group 4" transform="translate(0 162)">
      <circle id="Ellipse_2" data-name="Ellipse 2" class="cls-2" cx="25" cy="25" r="25" transform="translate(435 1382)"/>
      <rect id="Rectangle_14" data-name="Rectangle 14" class="cls-3" width="85" height="73" transform="translate(420 1370)"/>
      <g id="Rectangle_23" data-name="Rectangle 23" class="cls-4" transform="translate(418 1331)">
        <rect class="cls-6" width="85" height="38"/>
        <rect class="cls-3" x="0.5" y="0.5" width="84" height="37"/>
      </g>
      <text id="Step_1" data-name="Step 1" class="cls-5" transform="translate(433 1359)"><tspan x="0" y="0">Step 1</tspan></text>
    </g>
    <g id="Group_6" data-name="Group 6" transform="translate(0 162)">
      <circle id="Ellipse_4" data-name="Ellipse 4" class="cls-2" cx="25" cy="25" r="25" transform="translate(1436 1382)"/>
      <rect id="Rectangle_15" data-name="Rectangle 15" class="cls-3" width="85" height="73" transform="translate(1418 1370)"/>
      <g id="Rectangle_21" data-name="Rectangle 21" class="cls-4" transform="translate(1418 1331)">
        <rect class="cls-6" width="85" height="38"/>
        <rect class="cls-3" x="0.5" y="0.5" width="84" height="37"/>
      </g>
      <text id="Step_3" data-name="Step 3" class="cls-5" transform="translate(1433 1358)"><tspan x="0" y="0">Step 3</tspan></text>
    </g>
    <g id="Group_5" data-name="Group 5" transform="translate(0 162)">
      <circle id="Ellipse_3" data-name="Ellipse 3" class="cls-2" cx="25" cy="25" r="25" transform="translate(936 1075)"/>
      <rect id="Rectangle_16" data-name="Rectangle 16" class="cls-3" width="85" height="73" transform="translate(918 1063)"/>
      <g id="Rectangle_22" data-name="Rectangle 22" class="cls-4" transform="translate(918 1135)">
        <rect class="cls-6" width="85" height="38"/>
        <rect class="cls-3" x="0.5" y="0.5" width="84" height="37"/>
      </g>
      <text id="Step_2" data-name="Step 2" class="cls-5" transform="translate(933 1162)"><tspan x="0" y="0">Step 2</tspan></text>
    </g>
  </g>
</svg>
